<svg xmlns="http://www.w3.org/2000/svg" viewBox="0 0 310 310">
  <path d="M302.973 57.388c-4.87 2.16-9.877 3.983-14.993 5.463 6.057-6.85 10.675-14.91 13.494-23.73.632-1.976-.023-4.14-1.648-5.433-1.623-1.294-3.878-1.45-5.665-.39-10.864 6.444-22.586 11.075-34.877 13.783-12.38-12.098-29.197-18.983-46.58-18.983-36.696 0-66.55 29.853-66.55 66.547 0 2.89.183 5.764.545 8.598-45.535-3.998-87.868-26.38-116.938-62.038-1.036-1.27-2.632-1.956-4.266-1.825-1.635.127-3.104 1.05-3.93 2.466-5.896 10.117-9.013 21.688-9.013 33.46 0 16.036 5.726 31.25 15.84 43.138-3.076-1.065-6.06-2.396-8.908-3.977-1.53-.85-3.395-.838-4.914.033-1.52.87-2.473 2.473-2.513 4.224-.007.295-.007.59-.007.89 0 23.934 12.882 45.483 32.577 57.228-1.692-.17-3.383-.414-5.063-.735-1.732-.33-3.513.276-4.68 1.597-1.17 1.32-1.558 3.16-1.02 4.84 7.29 22.76 26.06 39.5 48.75 44.605-18.82 11.786-40.34 17.96-62.932 17.96-4.714 0-9.455-.277-14.095-.826-2.305-.274-4.51 1.087-5.294 3.28-.784 2.192.048 4.637 2.01 5.894 29.022 18.61 62.58 28.445 97.046 28.445 67.754 0 110.14-31.95 133.764-58.753 29.46-33.42 46.356-77.658 46.356-121.367 0-1.826-.028-3.67-.084-5.508 11.623-8.757 21.63-19.355 29.773-31.536 1.237-1.85 1.103-4.296-.33-6-1.43-1.703-3.816-2.254-5.852-1.352z"/>
</svg>
